<svg xmlns="http://www.w3.org/2000/svg" xmlns:xlink="http://www.w3.org/1999/xlink" id="Layer_1" x="0px" y="0px" viewBox="0 0 511.949 511.949" style="enable-background:new 0 0 511.949 511.949;" xml:space="preserve">
<g>
	<g>
		<path d="M271.215,255.894l237.76-237.867c4.053-4.267,3.947-10.987-0.213-15.04c-4.16-3.947-10.667-3.947-14.827,0    l-237.867,237.76L18.308,2.988c-4.267-4.053-10.987-3.947-15.04,0.32c-3.947,4.16-3.947,10.667,0,14.827l237.76,237.76    L3.268,493.655c-4.267,4.053-4.373,10.88-0.213,15.04c4.16,4.16,10.88,4.373,15.04,0.213c0.107-0.107,0.213-0.213,0.213-0.213    l237.76-237.76l237.76,237.76c4.267,4.053,10.987,3.947,15.04-0.213c3.947-4.16,3.947-10.667,0-14.827L271.215,255.894z"></path>
	</g>
</g>
<g>
</g>
<g>
</g>
<g>
</g>
<g>
</g>
<g>
</g>
<g>
</g>
<g>
</g>
<g>
</g>
<g>
</g>
<g>
</g>
<g>
</g>
<g>
</g>
<g>
</g>
<g>
</g>
<g>
</g>
</svg>